HIERARCHY
ROOT Hips
{
    OFFSET 0.000000 0.000000 0.000000
    CHANNELS 6 Xposition Yposition Zposition Zrotation Xrotation Yrotation
    JOINT Spine
    {
        OFFSET -0.000002 7.483729 0.000023
        CHANNELS 3 Zrotation Xrotation Yrotation
        JOINT Spine1
        {
            OFFSET -0.000001 20.538181 0.000012
            CHANNELS 3 Zrotation Xrotation Yrotation
            JOINT Neck
            {
                OFFSET -0.000001 22.426348 0.000008
                CHANNELS 3 Zrotation Xrotation Yrotation
                JOINT Head
                {
                    OFFSET -0.000001 14.412777 1.902208
                    CHANNELS 3 Zrotation Xrotation Yrotation
                    End Site
                    {
                        OFFSET 0.000000 19.022141 0.000000
                    }
                }
            }
            JOINT LeftShoulder
            {
                OFFSET 3.797833 16.121204 -0.677310
                CHANNELS 3 Zrotation Xrotation Yrotation
                JOINT LeftArm
                {
                    OFFSET 11.576587 -0.000001 -0.000008
                    CHANNELS 3 Zrotation Xrotation Yrotation
                    JOINT LeftForeArm
                    {
                        OFFSET 29.906391 -0.000003 -0.000009
                        CHANNELS 3 Zrotation Xrotation Yrotation
                        JOINT LeftHand
                        {
                            OFFSET 24.318314 0.000003 -0.000010
                            CHANNELS 3 Zrotation Xrotation Yrotation
                            JOINT LeftHandThumb1
                            {
                                OFFSET 1.987810 -2.258878 3.162430
                                CHANNELS 3 Zrotation Xrotation Yrotation
                                JOINT LeftHandThumb2
                                {
                                    OFFSET 3.002292 -0.000003 -0.000003
                                    CHANNELS 3 Zrotation Xrotation Yrotation
                                    JOINT LeftHandThumb3
                                    {
                                        OFFSET 2.566088 0.000021 0.000011
                                        CHANNELS 3 Zrotation Xrotation Yrotation
                                        End Site
                                        {
                                            OFFSET 2.440626 0.000000 0.000000
                                        }
                                    }
                                }
                            }
                            JOINT LeftHandIndex1
                            {
                                OFFSET 8.131960 -0.000004 3.162409
                                CHANNELS 3 Zrotation Xrotation Yrotation
                                JOINT LeftHandIndex2
                                {
                                    OFFSET 4.517760 0.000007 0.000014
                                    CHANNELS 3 Zrotation Xrotation Yrotation
                                    JOINT LeftHandIndex3
                                    {
                                        OFFSET 2.258877 0.000003 0.000007
                                        CHANNELS 3 Zrotation Xrotation Yrotation
                                        End Site
                                        {
                                            OFFSET 2.148437 0.000000 0.000000
                                        }
                                    }
                                }
                            }
                            JOINT LeftHandMiddle1
                            {
                                OFFSET 8.131962 -0.000003 1.048103
                                CHANNELS 3 Zrotation Xrotation Yrotation
                                JOINT LeftHandMiddle2
                                {
                                    OFFSET 4.969532 -0.000002 -0.000011
                                    CHANNELS 3 Zrotation Xrotation Yrotation
                                    JOINT LeftHandMiddle3
                                    {
                                        OFFSET 2.710654 -0.000004 -0.000019
                                        CHANNELS 3 Zrotation Xrotation Yrotation
                                        End Site
                                        {
                                            OFFSET 2.578118 0.000000 0.000000
                                        }
                                    }
                                }
                            }
                            JOINT LeftHandRing1
                            {
                                OFFSET 7.680186 -0.000004 -1.048142
                                CHANNELS 3 Zrotation Xrotation Yrotation
                                JOINT LeftHandRing2
                                {
                                    OFFSET 4.517759 0.000003 0.000015
                                    CHANNELS 3 Zrotation Xrotation Yrotation
                                    JOINT LeftHandRing3
                                    {
                                        OFFSET 2.258877 0.000001 0.000008
                                        CHANNELS 3 Zrotation Xrotation Yrotation
                                        End Site
                                        {
                                            OFFSET 2.148437 0.000000 0.000000
                                        }
                                    }
                                }
                            }
                            JOINT LeftHandPinky1
                            {
                                OFFSET 7.228410 0.000002 -3.162422
                                CHANNELS 3 Zrotation Xrotation Yrotation
                                JOINT LeftHandPinky2
                                {
                                    OFFSET 3.614206 0.000000 0.000022
                                    CHANNELS 3 Zrotation Xrotation Yrotation
                                    JOINT LeftHandPinky3
                                    {
                                        OFFSET 1.807101 -0.000001 -0.000013
                                        CHANNELS 3 Zrotation Xrotation Yrotation
                                        End Site
                                        {
                                            OFFSET 1.718745 0.000000 0.000000
                                        }
                                    }
                                }
                            }
                        }
                    }
                }
            }
            JOINT RightShoulder
            {
                OFFSET -3.797833 16.121193 -0.677283
                CHANNELS 3 Zrotation Xrotation Yrotation
                JOINT RightArm
                {
                    OFFSET -11.576583 0.000005 0.000008
                    CHANNELS 3 Zrotation Xrotation Yrotation
                    JOINT RightForeArm
                    {
                        OFFSET -29.906401 0.000003 0.000009
                        CHANNELS 3 Zrotation Xrotation Yrotation
                        JOINT RightHand
                        {
                            OFFSET -24.318304 -0.000010 0.000009
                            CHANNELS 3 Zrotation Xrotation Yrotation
                            JOINT RightHandThumb1
                            {
                                OFFSET -1.987830 -2.258883 3.162432
                                CHANNELS 3 Zrotation Xrotation Yrotation
                                JOINT RightHandThumb2
                                {
                                    OFFSET -3.002275 0.000013 -0.000003
                                    CHANNELS 3 Zrotation Xrotation Yrotation
                                    JOINT RightHandThumb3
                                    {
                                        OFFSET -2.566105 -0.000001 0.000004
                                        CHANNELS 3 Zrotation Xrotation Yrotation
                                        End Site
                                        {
                                            OFFSET -2.440626 0.000000 0.000000
                                        }
                                    }
                                }
                            }
                            JOINT RightHandIndex1
                            {
                                OFFSET -8.131939 0.000001 3.162429
                                CHANNELS 3 Zrotation Xrotation Yrotation
                                JOINT RightHandIndex2
                                {
                                    OFFSET -4.517749 0.000001 0.000001
                                    CHANNELS 3 Zrotation Xrotation Yrotation
                                    JOINT RightHandIndex3
                                    {
                                        OFFSET -2.258898 -0.000001 0.000003
                                        CHANNELS 3 Zrotation Xrotation Yrotation
                                        End Site
                                        {
                                            OFFSET -2.148437 0.000000 0.000000
                                        }
                                    }
                                }
                            }
                            JOINT RightHandMiddle1
                            {
                                OFFSET -8.131984 -0.000008 1.048120
                                CHANNELS 3 Zrotation Xrotation Yrotation
                                JOINT RightHandMiddle2
                                {
                                    OFFSET -4.969529 0.000001 0.000001
                                    CHANNELS 3 Zrotation Xrotation Yrotation
                                    JOINT RightHandMiddle3
                                    {
                                        OFFSET -2.710631 0.000002 -0.000002
                                        CHANNELS 3 Zrotation Xrotation Yrotation
                                        End Site
                                        {
                                            OFFSET -2.578118 0.000000 0.000000
                                        }
                                    }
                                }
                            }
                            JOINT RightHandRing1
                            {
                                OFFSET -7.680209 -0.000005 -1.048118
                                CHANNELS 3 Zrotation Xrotation Yrotation
                                JOINT RightHandRing2
                                {
                                    OFFSET -4.517749 0.000000 0.000001
                                    CHANNELS 3 Zrotation Xrotation Yrotation
                                    JOINT RightHandRing3
                                    {
                                        OFFSET -2.258898 -0.000002 0.000003
                                        CHANNELS 3 Zrotation Xrotation Yrotation
                                        End Site
                                        {
                                            OFFSET -2.148437 0.000000 0.000000
                                        }
                                    }
                                }
                            }
                            JOINT RightHandPinky1
                            {
                                OFFSET -7.228427 0.000000 -3.162426
                                CHANNELS 3 Zrotation Xrotation Yrotation
                                JOINT RightHandPinky2
                                {
                                    OFFSET -3.614190 0.000001 0.000000
                                    CHANNELS 3 Zrotation Xrotation Yrotation
                                    JOINT RightHandPinky3
                                    {
                                        OFFSET -1.807119 -0.000002 0.000002
                                        CHANNELS 3 Zrotation Xrotation Yrotation
                                        End Site
                                        {
                                            OFFSET -1.718745 0.000000 0.000000
                                        }
                                    }
                                }
                            }
                        }
                    }
                }
            }
        }
    }
    JOINT LeftUpLeg
    {
        OFFSET 9.511070 0.000004 -0.000021
        CHANNELS 3 Zrotation Xrotation Yrotation
        JOINT LeftLeg
        {
            OFFSET 0.000002 -43.875633 -0.000018
            CHANNELS 3 Zrotation Xrotation Yrotation
            JOINT LeftFoot
            {
                OFFSET 0.000001 -35.354156 -0.000004
                CHANNELS 3 Zrotation Xrotation Yrotation
                JOINT LeftToeBase
                {
                    OFFSET 0.000005 -6.182192 14.266581
                    CHANNELS 3 Zrotation Xrotation Yrotation
                    End Site
                    {
                        OFFSET 0.000000 0.000000 3.804428
                    }
                }
            }
        }
    }
    JOINT RightUpLeg
    {
        OFFSET -9.511070 -0.000004 0.000021
        CHANNELS 3 Zrotation Xrotation Yrotation
        JOINT RightLeg
        {
            OFFSET 0.000000 -43.875645 0.000015
            CHANNELS 3 Zrotation Xrotation Yrotation
            JOINT RightFoot
            {
                OFFSET -0.000001 -35.354156 -0.000004
                CHANNELS 3 Zrotation Xrotation Yrotation
                JOINT RightToeBase
                {
                    OFFSET 0.000001 -6.182192 14.266604
                    CHANNELS 3 Zrotation Xrotation Yrotation
                    End Site
                    {
                        OFFSET 0.000000 0.000000 3.804428
                    }
                }
            }
        }
    }
}
MOTION
Frames:    4
Frame Time:    0.002778
9.258560    92.057457    595.637329    5.900224    2.495685    -161.231903    -0.268096    6.284645    2.474243    -1.340477    6.283007    2.591626    6.523400    3.793990    -17.945015    6.523400    3.793990    -17.945013    3.061493    -1.842866    -0.952162    -54.357796    6.726947    -17.765368    -55.685993    25.991367    -90.858192    13.099236    2.033167    11.225081    47.448238    38.866428    -34.355057    -35.000008    0.000001    -0.000002    -0.000000    0.000000    -0.000000    0.000000    10.000004    -0.000003    -0.000000    0.000000    -0.000000    -0.000000    0.000000    -0.000000    -0.000000    0.000000    -0.000000    -0.000000    0.000000    -0.000000    -0.000000    0.000000    -0.000000    -0.000000    0.000000    -0.000000    -0.000000    0.000000    -0.000000    -0.000000    0.000000    -0.000000    0.000003    -9.999997    -0.000010    -0.000000    0.000000    -0.000000    -0.000000    0.000000    -0.000000    -3.342009    0.300916    2.699011    59.178692    -2.375721    15.909529    9.523458    22.591728    71.071243    -65.276085    14.904038    -6.777152    -47.448215    38.866428    34.355026    35.000000    0.000002    0.000008    -0.000000    0.000000    -0.000000    -0.000003    10.000000    -0.000005    -0.000000    0.000000    -0.000000    -0.000000    0.000000    -0.000000    -0.000000    0.000000    -0.000000    -0.000000    0.000000    -0.000000    -0.000000    0.000000    -0.000000    -0.000000    0.000000    -0.000000    -0.000000    0.000000    -0.000000    -0.000000    0.000000    -0.000000    -0.000007    -10.000000    -0.000007    -0.000000    0.000000    -0.000000    -0.000000    0.000000    -0.000000    20.798841    -12.917046    -0.525492    -0.000000    28.714682    0.000001    -11.356154    -15.114032    -4.531349    -0.000000    -0.736143    -0.000001    -6.027864    -5.998251    2.475278    0.000004    26.091919    -0.000003    16.691427    -16.028233    -25.330814    -0.000000    -3.619578    0.000000    
9.287129    92.053070    595.702759    5.923519    2.408684    -161.468582    -0.274559    6.266458    2.539499    -1.372793    6.264743    2.659361    6.509760    3.727690    -17.894718    6.509761    3.727692    -17.894718    3.047338    -1.873755    -0.986134    -54.381157    6.724597    -17.833452    -55.648418    25.982233    -90.842743    12.968847    1.992701    11.166451    47.448215    38.866440    -34.355030    -35.000008    0.000007    -0.000010    -0.000000    0.000000    -0.000000    0.000007    10.000001    -0.000001    -0.000000    0.000000    -0.000000    -0.000000    0.000000    -0.000000    -0.000000    0.000000    -0.000000    -0.000000    0.000000    -0.000000    -0.000000    0.000000    -0.000000    -0.000000    0.000000    -0.000000    -0.000000    0.000000    -0.000000    -0.000000    0.000000    -0.000000    0.000000    -9.999997    0.000000    -0.000000    0.000000    -0.000000    -0.000000    0.000000    -0.000000    -3.435496    0.284942    2.721560    59.326557    -2.223599    15.613482    9.447368    22.675236    71.173210    -65.264572    14.981833    -6.814186    -47.448219    38.866432    34.355045    35.000004    -0.000003    0.000002    -0.000000    0.000000    -0.000000    0.000003    10.000003    0.000002    -0.000000    0.000000    -0.000000    -0.000000    0.000000    -0.000000    -0.000000    0.000000    -0.000000    -0.000000    0.000000    -0.000000    -0.000000    0.000000    -0.000000    -0.000000    0.000000    -0.000000    -0.000000    0.000000    -0.000000    -0.000000    0.000000    -0.000000    0.000003    -9.999998    0.000000    -0.000000    0.000000    -0.000000    -0.000000    0.000000    -0.000000    20.825972    -12.941377    -0.450645    -0.000000    28.724958    0.000001    -11.444278    -15.131818    -4.382430    0.000000    -0.734789    0.000001    -6.035297    -6.309823    2.485313    0.000000    26.329052    0.000002    16.615643    -15.939450    -25.149536    -0.000000    -3.616556    -0.000001    
9.306270    92.055527    595.743835    5.940446    2.358659    -161.613983    -0.275848    6.251069    2.556129    -1.379238    6.249346    2.676262    6.490314    3.693890    -17.852247    6.490312    3.693887    -17.852245    3.025268    -1.884003    -1.009752    -54.410019    6.722480    -17.892118    -55.675926    25.963064    -90.792397    12.830290    1.961437    11.155159    47.448219    38.866432    -34.355026    -35.000000    0.000003    0.000001    -0.000000    0.000000    -0.000000    -0.000004    9.999995    0.000007    -0.000000    0.000000    -0.000000    -0.000000    0.000000    -0.000000    -0.000000    0.000000    -0.000000    -0.000000    0.000000    -0.000000    -0.000000    0.000000    -0.000000    -0.000000    0.000000    -0.000000    -0.000000    0.000000    -0.000000    -0.000000    0.000000    -0.000000    -0.000003    -9.999997    0.000007    -0.000000    0.000000    -0.000000    -0.000000    0.000000    -0.000000    -3.529303    0.284865    2.695971    59.453976    -2.100576    15.317038    9.464133    22.859133    71.229523    -65.388649    15.052528    -6.806561    -47.448212    38.866421    34.355030    34.999992    0.000004    -0.000006    -0.000000    0.000000    -0.000000    0.000001    10.000001    -0.000002    -0.000000    0.000000    -0.000000    -0.000000    0.000000    -0.000000    -0.000000    0.000000    -0.000000    -0.000000    0.000000    -0.000000    -0.000000    0.000000    -0.000000    -0.000000    0.000000    -0.000000    -0.000000    0.000000    -0.000000    -0.000000    0.000000    -0.000000    0.000001    -9.999999    0.000002    -0.000000    0.000000    -0.000000    -0.000000    0.000000    -0.000000    20.837269    -12.949407    -0.415220    0.000000    28.711401    -0.000001    -11.462770    -15.126555    -4.258712    -0.000000    -0.732532    0.000000    -6.033416    -6.488626    2.484767    0.000001    26.445419    -0.000000    16.521433    -15.851404    -25.043182    0.000000    -3.607588    0.000000    
9.336541    92.054642    595.795898    5.949146    2.324397    -161.797058    -0.279928    6.256116    2.581285    -1.399631    6.254337    2.703291    6.468060    3.652744    -17.800989    6.468060    3.652744    -17.800987    3.014022    -1.904755    -1.032559    -54.431644    6.717573    -17.953857    -55.732590    25.931530    -90.747063    12.744280    1.945202    11.163027    47.448219    38.866447    -34.355034    -34.999996    0.000000    -0.000007    -0.000000    0.000000    -0.000000    -0.000004    9.999995    0.000004    -0.000000    0.000000    -0.000000    -0.000000    0.000000    -0.000000    -0.000000    0.000000    -0.000000    -0.000000    0.000000    -0.000000    -0.000000    0.000000    -0.000000    -0.000000    0.000000    -0.000000    -0.000000    0.000000    -0.000000    -0.000000    0.000000    -0.000000    -0.000001    -10.000002    0.000007    -0.000000    0.000000    -0.000000    -0.000000    0.000000    -0.000000    -3.615427    0.302175    2.722863    59.554920    -1.934641    15.035274    9.382623    22.975933    71.397888    -65.399818    15.058443    -6.805181    -47.448208    38.866440    34.355030    34.999996    -0.000002    -0.000002    -0.000000    0.000000    -0.000000    0.000001    10.000001    -0.000005    -0.000000    0.000000    -0.000000    -0.000000    0.000000    -0.000000    -0.000000    0.000000    -0.000000    -0.000000    0.000000    -0.000000    -0.000000    0.000000    -0.000000    -0.000000    0.000000    -0.000000    -0.000000    0.000000    -0.000000    -0.000000    0.000000    -0.000000    0.000005    -10.000001    0.000004    -0.000000    0.000000    -0.000000    -0.000000    0.000000    -0.000000    20.862463    -12.934933    -0.364016    -0.000000    28.704355    0.000001    -11.488190    -15.124024    -4.147738    0.000000    -0.729469    0.000000    -6.028114    -6.646791    2.510378    0.000000    26.522890    0.000002    16.442490    -15.770489    -24.929443    0.000000    -3.600803    -0.000001    
